<mxfile host="app.diagrams.net" modified="2023-03-07T07:23:13.008Z" agent="5.0 (Macintosh; Intel Mac OS X 10_15_7) AppleWebKit/537.36 (KHTML, like Gecko) Chrome/110.0.0.0 Safari/537.36" version="20.7.4" etag="5YC4BIJho64KngwSqGfY" type="github">
  <diagram id="kLts_IBcZ2HpCh8pD45_" name="第 1 页">
    <mxGraphModel dx="1159" dy="796" grid="1" gridSize="10" guides="1" tooltips="1" connect="1" arrows="1" fold="1" page="1" pageScale="1" pageWidth="827" pageHeight="1169" math="0" shadow="0">
      <root>
        <mxCell id="0" />
        <mxCell id="1" parent="0" />
        <mxCell id="J-Pv7_Vkf3YSL0h_WbMz-5" value="" style="edgeStyle=orthogonalEdgeStyle;rounded=0;orthogonalLoop=1;jettySize=auto;html=1;fontSize=14;" edge="1" parent="1" source="J-Pv7_Vkf3YSL0h_WbMz-3" target="J-Pv7_Vkf3YSL0h_WbMz-4">
          <mxGeometry relative="1" as="geometry" />
        </mxCell>
        <mxCell id="J-Pv7_Vkf3YSL0h_WbMz-3" value="获取缓存用户" style="strokeWidth=2;html=1;shape=mxgraph.flowchart.terminator;whiteSpace=wrap;fontSize=14;fillColor=#fff2cc;strokeColor=#d6b656;" vertex="1" parent="1">
          <mxGeometry x="340" y="80" width="100" height="60" as="geometry" />
        </mxCell>
        <mxCell id="J-Pv7_Vkf3YSL0h_WbMz-10" style="edgeStyle=orthogonalEdgeStyle;rounded=0;orthogonalLoop=1;jettySize=auto;html=1;fontSize=14;" edge="1" parent="1" source="J-Pv7_Vkf3YSL0h_WbMz-4" target="J-Pv7_Vkf3YSL0h_WbMz-6">
          <mxGeometry relative="1" as="geometry" />
        </mxCell>
        <mxCell id="J-Pv7_Vkf3YSL0h_WbMz-4" value="从map中获取" style="whiteSpace=wrap;html=1;strokeWidth=2;fontSize=14;fillColor=#dae8fc;strokeColor=#6c8ebf;" vertex="1" parent="1">
          <mxGeometry x="330" y="220" width="120" height="60" as="geometry" />
        </mxCell>
        <mxCell id="J-Pv7_Vkf3YSL0h_WbMz-8" value="" style="edgeStyle=orthogonalEdgeStyle;rounded=0;orthogonalLoop=1;jettySize=auto;html=1;fontSize=14;" edge="1" parent="1" source="J-Pv7_Vkf3YSL0h_WbMz-6" target="J-Pv7_Vkf3YSL0h_WbMz-7">
          <mxGeometry relative="1" as="geometry" />
        </mxCell>
        <mxCell id="J-Pv7_Vkf3YSL0h_WbMz-9" value="是" style="edgeLabel;html=1;align=center;verticalAlign=middle;resizable=0;points=[];fontSize=14;" vertex="1" connectable="0" parent="J-Pv7_Vkf3YSL0h_WbMz-8">
          <mxGeometry x="-0.3333" relative="1" as="geometry">
            <mxPoint y="1" as="offset" />
          </mxGeometry>
        </mxCell>
        <mxCell id="J-Pv7_Vkf3YSL0h_WbMz-24" style="edgeStyle=orthogonalEdgeStyle;rounded=0;orthogonalLoop=1;jettySize=auto;html=1;entryX=0.5;entryY=0;entryDx=0;entryDy=0;fontSize=14;" edge="1" parent="1" source="J-Pv7_Vkf3YSL0h_WbMz-6" target="J-Pv7_Vkf3YSL0h_WbMz-23">
          <mxGeometry relative="1" as="geometry" />
        </mxCell>
        <mxCell id="J-Pv7_Vkf3YSL0h_WbMz-6" value="判断值是否为空" style="rhombus;whiteSpace=wrap;html=1;strokeWidth=2;fontSize=14;fillColor=#f8cecc;strokeColor=#b85450;" vertex="1" parent="1">
          <mxGeometry x="350" y="340" width="80" height="80" as="geometry" />
        </mxCell>
        <mxCell id="J-Pv7_Vkf3YSL0h_WbMz-12" style="edgeStyle=orthogonalEdgeStyle;rounded=0;orthogonalLoop=1;jettySize=auto;html=1;entryX=0;entryY=0.5;entryDx=0;entryDy=0;fontSize=14;" edge="1" parent="1" source="J-Pv7_Vkf3YSL0h_WbMz-7" target="J-Pv7_Vkf3YSL0h_WbMz-11">
          <mxGeometry relative="1" as="geometry" />
        </mxCell>
        <mxCell id="J-Pv7_Vkf3YSL0h_WbMz-7" value="rpc调用获取值" style="whiteSpace=wrap;html=1;strokeWidth=2;fontSize=14;fillColor=#dae8fc;strokeColor=#6c8ebf;" vertex="1" parent="1">
          <mxGeometry x="500" y="350" width="120" height="60" as="geometry" />
        </mxCell>
        <mxCell id="J-Pv7_Vkf3YSL0h_WbMz-14" value="" style="edgeStyle=orthogonalEdgeStyle;rounded=0;orthogonalLoop=1;jettySize=auto;html=1;fontSize=14;" edge="1" parent="1" source="J-Pv7_Vkf3YSL0h_WbMz-11" target="J-Pv7_Vkf3YSL0h_WbMz-16">
          <mxGeometry relative="1" as="geometry">
            <mxPoint x="820" y="380" as="targetPoint" />
          </mxGeometry>
        </mxCell>
        <mxCell id="J-Pv7_Vkf3YSL0h_WbMz-15" value="是" style="edgeLabel;html=1;align=center;verticalAlign=middle;resizable=0;points=[];fontSize=14;" vertex="1" connectable="0" parent="J-Pv7_Vkf3YSL0h_WbMz-14">
          <mxGeometry x="-0.4" y="-1" relative="1" as="geometry">
            <mxPoint y="1" as="offset" />
          </mxGeometry>
        </mxCell>
        <mxCell id="J-Pv7_Vkf3YSL0h_WbMz-18" value="" style="edgeStyle=orthogonalEdgeStyle;rounded=0;orthogonalLoop=1;jettySize=auto;html=1;fontSize=14;" edge="1" parent="1" source="J-Pv7_Vkf3YSL0h_WbMz-11" target="J-Pv7_Vkf3YSL0h_WbMz-17">
          <mxGeometry relative="1" as="geometry" />
        </mxCell>
        <mxCell id="J-Pv7_Vkf3YSL0h_WbMz-11" value="判断值是否为空" style="rhombus;whiteSpace=wrap;html=1;strokeWidth=2;fontSize=14;fillColor=#f8cecc;strokeColor=#b85450;" vertex="1" parent="1">
          <mxGeometry x="680" y="340" width="80" height="80" as="geometry" />
        </mxCell>
        <mxCell id="J-Pv7_Vkf3YSL0h_WbMz-16" value="直接返回空值" style="strokeWidth=2;html=1;shape=mxgraph.flowchart.terminator;whiteSpace=wrap;fontSize=14;fillColor=#fff2cc;strokeColor=#d6b656;" vertex="1" parent="1">
          <mxGeometry x="827" y="350" width="100" height="60" as="geometry" />
        </mxCell>
        <mxCell id="J-Pv7_Vkf3YSL0h_WbMz-20" value="" style="edgeStyle=orthogonalEdgeStyle;rounded=0;orthogonalLoop=1;jettySize=auto;html=1;fontSize=14;" edge="1" parent="1" source="J-Pv7_Vkf3YSL0h_WbMz-17" target="J-Pv7_Vkf3YSL0h_WbMz-19">
          <mxGeometry relative="1" as="geometry" />
        </mxCell>
        <mxCell id="J-Pv7_Vkf3YSL0h_WbMz-17" value="写入map" style="whiteSpace=wrap;html=1;strokeWidth=2;fontSize=14;fillColor=#dae8fc;strokeColor=#6c8ebf;" vertex="1" parent="1">
          <mxGeometry x="660" y="470" width="120" height="60" as="geometry" />
        </mxCell>
        <mxCell id="J-Pv7_Vkf3YSL0h_WbMz-22" style="edgeStyle=orthogonalEdgeStyle;rounded=0;orthogonalLoop=1;jettySize=auto;html=1;fontSize=14;" edge="1" parent="1" source="J-Pv7_Vkf3YSL0h_WbMz-19" target="J-Pv7_Vkf3YSL0h_WbMz-21">
          <mxGeometry relative="1" as="geometry" />
        </mxCell>
        <mxCell id="J-Pv7_Vkf3YSL0h_WbMz-19" value="写入key/value" style="whiteSpace=wrap;html=1;strokeWidth=2;fontSize=14;fillColor=#dae8fc;strokeColor=#6c8ebf;" vertex="1" parent="1">
          <mxGeometry x="660" y="585" width="120" height="60" as="geometry" />
        </mxCell>
        <mxCell id="J-Pv7_Vkf3YSL0h_WbMz-21" value="返回结果值" style="strokeWidth=2;html=1;shape=mxgraph.flowchart.terminator;whiteSpace=wrap;fontSize=14;fillColor=#fff2cc;strokeColor=#d6b656;" vertex="1" parent="1">
          <mxGeometry x="670" y="700" width="100" height="60" as="geometry" />
        </mxCell>
        <mxCell id="J-Pv7_Vkf3YSL0h_WbMz-26" style="edgeStyle=orthogonalEdgeStyle;rounded=0;orthogonalLoop=1;jettySize=auto;html=1;fontSize=14;" edge="1" parent="1" source="J-Pv7_Vkf3YSL0h_WbMz-23" target="J-Pv7_Vkf3YSL0h_WbMz-25">
          <mxGeometry relative="1" as="geometry" />
        </mxCell>
        <mxCell id="J-Pv7_Vkf3YSL0h_WbMz-23" value="从key/value中获取" style="whiteSpace=wrap;html=1;fontSize=14;strokeWidth=2;fillColor=#dae8fc;strokeColor=#6c8ebf;" vertex="1" parent="1">
          <mxGeometry x="330" y="480" width="120" height="60" as="geometry" />
        </mxCell>
        <mxCell id="J-Pv7_Vkf3YSL0h_WbMz-27" style="edgeStyle=orthogonalEdgeStyle;rounded=0;orthogonalLoop=1;jettySize=auto;html=1;fontSize=14;" edge="1" parent="1" source="J-Pv7_Vkf3YSL0h_WbMz-25" target="J-Pv7_Vkf3YSL0h_WbMz-7">
          <mxGeometry relative="1" as="geometry" />
        </mxCell>
        <mxCell id="J-Pv7_Vkf3YSL0h_WbMz-28" value="是" style="edgeLabel;html=1;align=center;verticalAlign=middle;resizable=0;points=[];fontSize=14;" vertex="1" connectable="0" parent="J-Pv7_Vkf3YSL0h_WbMz-27">
          <mxGeometry x="-0.4388" y="-2" relative="1" as="geometry">
            <mxPoint y="1" as="offset" />
          </mxGeometry>
        </mxCell>
        <mxCell id="J-Pv7_Vkf3YSL0h_WbMz-29" style="edgeStyle=orthogonalEdgeStyle;rounded=0;orthogonalLoop=1;jettySize=auto;html=1;entryX=0;entryY=0.5;entryDx=0;entryDy=0;entryPerimeter=0;fontSize=14;" edge="1" parent="1" source="J-Pv7_Vkf3YSL0h_WbMz-25" target="J-Pv7_Vkf3YSL0h_WbMz-21">
          <mxGeometry relative="1" as="geometry">
            <Array as="points">
              <mxPoint x="390" y="730" />
            </Array>
          </mxGeometry>
        </mxCell>
        <mxCell id="J-Pv7_Vkf3YSL0h_WbMz-30" value="否" style="edgeLabel;html=1;align=center;verticalAlign=middle;resizable=0;points=[];fontSize=14;" vertex="1" connectable="0" parent="J-Pv7_Vkf3YSL0h_WbMz-29">
          <mxGeometry x="0.093" y="1" relative="1" as="geometry">
            <mxPoint y="1" as="offset" />
          </mxGeometry>
        </mxCell>
        <mxCell id="J-Pv7_Vkf3YSL0h_WbMz-25" value="判断值是否为空" style="rhombus;whiteSpace=wrap;html=1;strokeWidth=2;fontSize=14;fillColor=#f8cecc;strokeColor=#b85450;" vertex="1" parent="1">
          <mxGeometry x="350" y="575" width="80" height="80" as="geometry" />
        </mxCell>
      </root>
    </mxGraphModel>
  </diagram>
</mxfile>
